<?xml version="1.0" encoding="UTF-8" standalone="no"?>
<!-- Created with Inkscape (http://www.inkscape.org/) -->

<svg
   width="248.83372mm"
   height="103.95101mm"
   viewBox="0 0 248.83372 103.95101"
   version="1.1"
   id="svg1"
   xml:space="preserve"
   inkscape:version="1.3.2 (091e20e, 2023-11-25, custom)"
   sodipodi:docname="wk-logo-modern.svg"
   inkscape:export-filename="wk-logo-modern.jpg"
   inkscape:export-xdpi="96"
   inkscape:export-ydpi="96"
   xmlns:inkscape="http://www.inkscape.org/namespaces/inkscape"
   xmlns:sodipodi="http://sodipodi.sourceforge.net/DTD/sodipodi-0.dtd"
   xmlns:xlink="http://www.w3.org/1999/xlink"
   xmlns="http://www.w3.org/2000/svg"
   xmlns:svg="http://www.w3.org/2000/svg"><sodipodi:namedview
     id="namedview1"
     pagecolor="#ffffff"
     bordercolor="#000000"
     borderopacity="0.25"
     inkscape:showpageshadow="2"
     inkscape:pageopacity="0.0"
     inkscape:pagecheckerboard="0"
     inkscape:deskcolor="#d1d1d1"
     inkscape:document-units="mm"
     inkscape:zoom="1"
     inkscape:cx="296"
     inkscape:cy="337.5"
     inkscape:window-width="2560"
     inkscape:window-height="1369"
     inkscape:window-x="-8"
     inkscape:window-y="-8"
     inkscape:window-maximized="1"
     inkscape:current-layer="g1"
     showgrid="false"><inkscape:grid
       id="grid1"
       units="mm"
       originx="-0.81253899"
       originy="-25.781852"
       spacingx="0.99999999"
       spacingy="0.99999999"
       empcolor="#0099e5"
       empopacity="0.30196078"
       color="#0099e5"
       opacity="0.14901961"
       empspacing="5"
       dotted="false"
       gridanglex="30"
       gridanglez="30"
       visible="false" /></sodipodi:namedview><defs
     id="defs1"><linearGradient
       id="linearGradient867"
       inkscape:collect="always"><stop
         style="stop-color:#0f2265;stop-opacity:0.99607843;"
         offset="0"
         id="stop868" /><stop
         style="stop-color:#1c3589;stop-opacity:0.99607843;"
         offset="0.16765286"
         id="stop869" /><stop
         style="stop-color:#2d4491;stop-opacity:0.99607843;"
         offset="0.24654832"
         id="stop870" /><stop
         style="stop-color:#2a45a2;stop-opacity:0.99607843;"
         offset="0.40236685"
         id="stop865" /><stop
         style="stop-color:#4e3e89;stop-opacity:0.99607843;"
         offset="0.61735702"
         id="stop866" /><stop
         style="stop-color:#9a28b7;stop-opacity:0.99607843;"
         offset="1"
         id="stop867" /></linearGradient><linearGradient
       id="linearGradient444"
       inkscape:collect="always"><stop
         style="stop-color:#411e47;stop-opacity:0.99536002;"
         offset="0"
         id="stop444" /><stop
         style="stop-color:#511f57;stop-opacity:0.99607843;"
         offset="0.09072977"
         id="stop466" /><stop
         style="stop-color:#9f26a5;stop-opacity:0.99607843;"
         offset="0.469428"
         id="stop467" /><stop
         style="stop-color:#b128b7;stop-opacity:1;"
         offset="1"
         id="stop445" /></linearGradient><linearGradient
       id="linearGradient442"
       inkscape:collect="always"><stop
         style="stop-color:#2869b7;stop-opacity:1;"
         offset="0"
         id="stop443" /><stop
         style="stop-color:#4d5bc1;stop-opacity:0.99607843;"
         offset="0.12623274"
         id="stop465" /><stop
         style="stop-color:#7a32a6;stop-opacity:0.99607843;"
         offset="0.65088755"
         id="stop464" /><stop
         style="stop-color:#ad3cdb;stop-opacity:0.99536002;"
         offset="1"
         id="stop442" /></linearGradient><linearGradient
       id="linearGradient440"
       inkscape:collect="always"><stop
         style="stop-color:#0e1363;stop-opacity:0.99607843;"
         offset="0"
         id="stop460" /><stop
         style="stop-color:#292a70;stop-opacity:0.99607843;"
         offset="0.18145956"
         id="stop463" /><stop
         style="stop-color:#2c2ea5;stop-opacity:0.99536002;"
         offset="0.42209071"
         id="stop440" /><stop
         style="stop-color:#2c2ea5;stop-opacity:0.99607843;"
         offset="0.52451688"
         id="stop448" /><stop
         style="stop-color:#25a8b7;stop-opacity:0.99607843;"
         offset="1"
         id="stop441" /></linearGradient><linearGradient
       id="linearGradient436"
       inkscape:collect="always"><stop
         style="stop-color:#282db7;stop-opacity:1;"
         offset="0"
         id="stop437" /><stop
         style="stop-color:#14aeff;stop-opacity:0.99536002;"
         offset="1"
         id="stop436" /></linearGradient><linearGradient
       id="linearGradient434"
       inkscape:collect="always"><stop
         style="stop-color:#25a8b7;stop-opacity:0.99536002;"
         offset="0"
         id="stop434" /><stop
         style="stop-color:#2588b7;stop-opacity:0.99607843;"
         offset="0.31937024"
         id="stop446" /><stop
         style="stop-color:#282db7;stop-opacity:1;"
         offset="1"
         id="stop435" /></linearGradient><linearGradient
       id="swatch209"
       inkscape:swatch="solid"><stop
         style="stop-color:#000000;stop-opacity:1;"
         offset="0"
         id="stop209" /></linearGradient><linearGradient
       id="swatch208"
       inkscape:swatch="solid"><stop
         style="stop-color:#ffffff;stop-opacity:1;"
         offset="0"
         id="stop208" /></linearGradient><linearGradient
       inkscape:collect="always"
       xlink:href="#linearGradient434"
       id="linearGradient435"
       x1="25.504538"
       y1="58.256809"
       x2="43.012005"
       y2="103.00479"
       gradientUnits="userSpaceOnUse"
       gradientTransform="matrix(2.0004913,0,0,2.0004913,-53.699727,-106.85111)" /><linearGradient
       inkscape:collect="always"
       xlink:href="#linearGradient436"
       id="linearGradient437"
       x1="47.276505"
       y1="89.077927"
       x2="59.373756"
       y2="57.933327"
       gradientUnits="userSpaceOnUse"
       gradientTransform="matrix(2.0004913,0,0,2.0004913,-53.699727,-106.85111)" /><linearGradient
       inkscape:collect="always"
       xlink:href="#linearGradient867"
       id="linearGradient439"
       x1="60.846333"
       y1="69.988632"
       x2="75.905258"
       y2="104.63737"
       gradientUnits="userSpaceOnUse"
       gradientTransform="matrix(2.0004913,0,0,2.0004913,-53.699727,-106.85111)" /><linearGradient
       inkscape:collect="always"
       xlink:href="#linearGradient440"
       id="linearGradient441"
       x1="74.227913"
       y1="92.312996"
       x2="95.636948"
       y2="58.382404"
       gradientUnits="userSpaceOnUse"
       gradientTransform="matrix(2.0004913,0,0,2.0004913,-53.699727,-106.85111)" /><linearGradient
       inkscape:collect="always"
       xlink:href="#linearGradient444"
       id="linearGradient445"
       x1="107.08555"
       y1="80.139511"
       x2="129.11447"
       y2="106.21219"
       gradientUnits="userSpaceOnUse"
       gradientTransform="matrix(2.0004913,0,0,2.0004913,-53.699727,-106.85111)" /><linearGradient
       inkscape:collect="always"
       xlink:href="#linearGradient442"
       id="linearGradient464"
       x1="107.69624"
       y1="57.339184"
       x2="108.23444"
       y2="105.94069"
       gradientUnits="userSpaceOnUse"
       gradientTransform="matrix(2.0004913,0,0,2.0004913,-53.699727,-106.85111)" /></defs><g
     inkscape:label="Layer 1"
     inkscape:groupmode="layer"
     id="layer1"
     transform="translate(-0.81253902,-25.781852)"><g
       style="fill:none"
       id="g1"
       transform="matrix(1.0452352,0,0,1.0452352,18.589521,17.866497)"><path
         style="fill:url(#linearGradient435);fill-opacity:0.99536;stroke:#000000;stroke-width:2.0005;stroke-opacity:0;paint-order:fill markers stroke"
         d="m -15.560461,8.6055552 17.366491,0.04481 c 0,0 1.2979985,0.04481 2.0141425,0.201429 0.7161441,0.156639 2.1036802,0.514726 2.6631562,0.760886 0.5594924,0.246182 1.253261,0.5371128 1.253261,0.5371128 l 1.7679677,0.984701 0.9623346,0.604249 1.454664,1.298 1.029448,1.074221 0.738521,0.917567 0.760914,1.208476 0.626622,1.007087 0.648999,1.387521 5.908197,16.113242 11.27925,30.704657 12.760939,31.697662 -0.603279,1.1946 -0.967916,1.41552 -0.816847,0.956714 c 0,0 -0.643417,0.85042 -1.449068,1.5218 -0.805666,0.67139 -1.672879,1.28121 -1.672879,1.28121 l -1.13015,0.66022 c 0,0 -1.303861,0.66075 -1.889364,0.88229 -0.585518,0.22156 -1.677432,0.64881 -2.674384,0.79123 -0.99695,0.14237 -2.26292,0.17405 -2.437005,0.17405 -0.174053,0 -2.294574,-0.0474 -2.294574,-0.0474 0,0 -1.788193,-0.17405 -2.104678,-0.26902 -0.316501,-0.0949 -2.57942,-0.94948 -2.57942,-0.94948 l -1.171037,-0.58551 -1.582469,-1.02861 -1.060244,-0.94947 -1.039163,-1.0057 -1.376338,-2.025364 -0.872812,-1.63369 -0.660194,-1.555383 -0.895174,-2.55126 z"
         id="path429"
         inkscape:export-filename=".\path429.svg"
         inkscape:export-xdpi="96"
         inkscape:export-ydpi="96" /><path
         style="fill:url(#linearGradient437);fill-opacity:0.99536;stroke:#000000;stroke-width:2.0005;stroke-opacity:0;paint-order:fill markers stroke"
         d="m 75.53278,16.433256 c 0,0 -0.652149,-1.539058 -1.1333,-2.132122 -0.481167,-0.593046 -1.3958,-1.721142 -1.3958,-1.721142 l -1.091915,-1.044438 -1.202675,-0.807057 -2.310401,-1.1710278 -1.566644,-0.474737 -0.917829,-0.174043 -2.104678,-0.158239 -1.598297,-0.016 -1.45588,0.07922 -1.123539,0.23738 c 0,0 -0.458931,0.06322 -0.933657,0.221534 -0.474743,0.158239 -0.17407,-0.03161 -1.392572,0.427265 -1.218503,0.4589308 -2.152161,1.1393798 -2.152161,1.1393798 l -1.45588,1.123556 -0.601331,0.585523 -0.712121,0.759586 -0.60133,0.949472 -0.757404,1.181731 -0.419355,0.886199 -17.786952,48.92993 12.833821,31.90255 z"
         id="path430"
         sodipodi:nodetypes="csccccccccccsscccccccccc" /><path
         style="fill:url(#linearGradient439);fill-opacity:0.99536;stroke:#000000;stroke-width:2.0005;stroke-opacity:0;paint-order:fill markers stroke"
         d="m 75.519806,16.425394 -12.477776,33.7145 16.528889,44.649369 0.743761,1.86732 0.759588,1.487513 0.617157,1.01278 0.427276,0.63299 0.538035,0.680474 0.854536,0.94947 0.74376,0.71211 1.012779,0.79125 0.822882,0.56967 1.06026,0.64882 1.376745,0.64881 1.519159,0.56969 1.788194,0.33232 2.104678,0.2057 1.360933,0.016 1.883139,-0.0793 1.851487,-0.36397 1.297622,-0.41145 1.91478,-0.93363 2.16798,-1.44007 1.67742,-1.48753 0.36398,-0.49056 z"
         id="path431"
         sodipodi:nodetypes="cccccccccccccccccccccccccc" /><path
         style="fill:url(#linearGradient441);fill-opacity:0.99536;stroke:#000000;stroke-width:2.0005;stroke-opacity:0;paint-order:fill markers stroke"
         d="M 106.44954,100.6994 93.528343,65.773965 111.2417,16.997856 l 0.52453,-0.975999 0.84662,-1.13938 1.26963,-1.398184 1.08826,-0.999246 1.56664,-1.171027 1.21849,-0.727938 2.05722,-0.9178248 1.37674,-0.474738 0.90203,-0.237377 1.2343,-0.158239 1.40841,-0.09502 17.10649,-0.110822 -32.23307,86.0401518 c -1.53801,3.375273 -1.97411,4.123833 -3.15845,6.067047 z"
         id="path432"
         sodipodi:nodetypes="ccccccccccccccccc" /><path
         style="fill:url(#linearGradient464);fill-opacity:0.99536;stroke:#000000;stroke-width:2.0005;stroke-opacity:0;paint-order:fill markers stroke"
         d="m 149.6189,8.2835972 0.27694,46.0419268 37.53615,-42.188621 1.0861,-0.76747 1.02947,-0.61545 1.92461,-0.9399308 1.77919,-0.559477 1.70083,-0.414023 0.81684,-0.100623 1.04065,-0.05602 22.01024,-0.100622 -68.97358,77.5561158 -0.016,19.705167 -24.74684,0.0379 -0.0633,-33.722431 z"
         id="path433" /><path
         style="fill:url(#linearGradient445);fill-opacity:0.99536;stroke:#000000;stroke-width:2.0005;stroke-opacity:0;paint-order:fill markers stroke"
         d="m 161.82977,72.659506 25.23365,31.707904 0.36857,0.34394 0.45892,0.35606 0.53013,0.37187 0.451,0.24528 c 0,0 0.18985,0.0713 0.39563,0.0791 0.20572,0.008 29.70889,0.10326 29.70889,0.10326 L 178.11162,54.282143 Z"
         id="path434"
         sodipodi:nodetypes="cccccccccc" /></g></g></svg>
