<svg width="77" height="10" viewBox="0 0 77 10" fill="none" xmlns="http://www.w3.org/2000/svg">
<path d="M74.5459 5.50801C74.7459 5.50801 74.9579 5.55601 75.1819 5.65201C75.4139 5.74001 75.6299 5.85201 75.8299 5.98801H75.8179C76.0259 6.14001 76.1859 6.33601 76.2979 6.57601C76.4099 6.81601 76.4659 7.10401 76.4659 7.44001V7.80001C76.4659 8.45601 76.2499 8.94001 75.8179 9.25201C75.6099 9.41201 75.3979 9.52801 75.1819 9.60001C74.9659 9.67201 74.7539 9.70801 74.5459 9.70801H72.5059C72.2979 9.70801 72.0859 9.67201 71.8699 9.60001C71.6539 9.52801 71.4419 9.41201 71.2339 9.25201C70.8019 8.94801 70.5859 8.46401 70.5859 7.80001V7.65601C70.5859 7.31201 70.8059 7.14401 71.2459 7.15201C71.6939 7.15201 71.9179 7.32001 71.9179 7.65601V7.78801C71.9179 7.98001 71.9779 8.16001 72.0979 8.32801C72.2179 8.49601 72.4299 8.58001 72.7339 8.58001H74.3179C74.6219 8.58001 74.8339 8.49601 74.9539 8.32801C75.0739 8.16001 75.1339 7.98001 75.1339 7.78801V7.45201C75.1339 7.34801 75.1179 7.24801 75.0859 7.15201C75.0619 7.05601 75.0179 6.97201 74.9539 6.90001C74.8899 6.82001 74.8059 6.75601 74.7019 6.70801C74.5979 6.66001 74.4699 6.63601 74.3179 6.63601H72.5659C72.1579 6.63601 71.7299 6.49201 71.2819 6.20401C70.8579 5.93201 70.6459 5.46401 70.6459 4.80001V4.39201C70.6459 4.07201 70.7019 3.79201 70.8139 3.55201C70.9259 3.30401 71.0859 3.10401 71.2939 2.95201H71.2819C71.4819 2.81601 71.6939 2.70401 71.9179 2.61601C72.1419 2.52801 72.3579 2.48401 72.5659 2.48401H74.4859C74.6939 2.48401 74.9059 2.52801 75.1219 2.61601C75.3459 2.70401 75.5619 2.81601 75.7699 2.95201H75.7579C75.9659 3.10401 76.1259 3.30401 76.2379 3.55201C76.3499 3.79201 76.4059 4.07201 76.4059 4.39201V4.50001C76.4059 4.66801 76.3499 4.79201 76.2379 4.87201C76.1259 4.94401 75.9619 4.98401 75.7459 4.99201C75.3059 5.00001 75.0859 4.83601 75.0859 4.50001V4.40401C75.0859 4.20401 75.0219 4.02401 74.8939 3.86401C74.7739 3.69601 74.5659 3.61201 74.2699 3.61201H72.7819C72.4859 3.61201 72.2739 3.69601 72.1459 3.86401C72.0259 4.02401 71.9659 4.20401 71.9659 4.40401V4.69201C71.9659 4.90001 72.0259 5.08801 72.1459 5.25601C72.2739 5.42401 72.4859 5.50801 72.7819 5.50801H74.5459Z" fill="black"/>
<path d="M64.6417 9.20401C64.6417 9.58801 64.4217 9.78001 63.9817 9.78001C63.5417 9.78001 63.3217 9.58801 63.3217 9.20401V4.38001C63.3217 4.05201 63.3737 3.76801 63.4777 3.52801C63.5817 3.28801 63.7457 3.09201 63.9697 2.94001C64.3937 2.63601 64.8177 2.48401 65.2417 2.48401H67.1737C67.5817 2.48401 68.0057 2.63601 68.4457 2.94001C68.8777 3.24401 69.0937 3.72401 69.0937 4.38001V9.20401C69.0937 9.58801 68.8737 9.78001 68.4337 9.78001C67.9937 9.78001 67.7737 9.58801 67.7737 9.20401V4.48801C67.7737 4.28001 67.7097 4.08001 67.5817 3.88801L67.5937 3.90001C67.4897 3.70801 67.2777 3.61201 66.9577 3.61201H65.4577C65.1297 3.61201 64.9137 3.70801 64.8097 3.90001C64.6977 4.06801 64.6417 4.26401 64.6417 4.48801V9.20401Z" fill="black"/>
<path d="M59.8843 2.48401C60.0923 2.48401 60.3043 2.52801 60.5203 2.61601C60.7443 2.70401 60.9603 2.81601 61.1683 2.95201H61.1563C61.3643 3.10401 61.5243 3.30401 61.6363 3.55201C61.7483 3.79201 61.8043 4.07201 61.8043 4.39201V7.80001C61.8043 8.45601 61.5883 8.94001 61.1563 9.25201C60.7323 9.55601 60.3083 9.70801 59.8843 9.70801H57.9643C57.7563 9.70801 57.5443 9.67201 57.3283 9.60001C57.1123 9.52801 56.9003 9.41201 56.6923 9.25201C56.2603 8.94801 56.0443 8.46401 56.0443 7.80001V4.39201C56.0443 4.07201 56.1003 3.79201 56.2123 3.55201C56.3243 3.30401 56.4843 3.10401 56.6923 2.95201H56.6803C56.8803 2.81601 57.0923 2.70401 57.3163 2.61601C57.5403 2.52801 57.7563 2.48401 57.9643 2.48401H59.8843ZM59.6683 8.58001C59.9643 8.58001 60.1723 8.49601 60.2923 8.32801C60.4203 8.16001 60.4843 7.98001 60.4843 7.78801V4.40401C60.4843 4.20401 60.4203 4.02401 60.2923 3.86401C60.1723 3.69601 59.9643 3.61201 59.6683 3.61201H58.1803C57.8843 3.61201 57.6723 3.69601 57.5443 3.86401C57.4243 4.02401 57.3643 4.20401 57.3643 4.40401V7.78801C57.3643 7.98001 57.4243 8.16001 57.5443 8.32801C57.6723 8.49601 57.8843 8.58001 58.1803 8.58001H59.6683Z" fill="black"/>
<path d="M54.3769 9.204C54.3769 9.588 54.1569 9.78 53.7169 9.78C53.2689 9.78 53.0449 9.588 53.0449 9.204V3.012C53.0449 2.628 53.2689 2.436 53.7169 2.436C54.1569 2.436 54.3769 2.628 54.3769 3.012V9.204ZM54.6289 0.924C54.6289 1.18 54.5409 1.396 54.3649 1.572C54.1889 1.748 53.9729 1.836 53.7169 1.836C53.4609 1.836 53.2409 1.748 53.0569 1.572C52.8809 1.396 52.7929 1.18 52.7929 0.924C52.7929 0.66 52.8809 0.44 53.0569 0.263999C53.2409 0.0879998 53.4609 0 53.7169 0C53.9729 0 54.1889 0.0879998 54.3649 0.263999C54.5409 0.44 54.6289 0.66 54.6289 0.924Z" fill="black"/>
<path d="M50.5265 3.61202V7.98002C50.5265 8.18802 50.5705 8.34802 50.6585 8.46002C50.7465 8.57202 50.9345 8.62802 51.2225 8.62802H51.5345C51.8465 8.62802 51.9945 8.81202 51.9785 9.18002C51.9785 9.55602 51.8305 9.74402 51.5345 9.74402H51.1385C50.8825 9.74402 50.6425 9.71202 50.4185 9.64802C50.1945 9.57602 49.9785 9.47602 49.7705 9.34802V9.36002C49.3785 9.10402 49.1825 8.64802 49.1825 7.99202V3.61202H48.7145C48.4265 3.61202 48.2745 3.42402 48.2585 3.04802C48.2585 2.67202 48.4105 2.48402 48.7145 2.48402H49.1825V1.20002C49.1825 0.816023 49.4105 0.624023 49.8665 0.624023C50.3065 0.624023 50.5265 0.816023 50.5265 1.20002V2.48402H51.5225C51.8345 2.48402 51.9825 2.67202 51.9665 3.04802C51.9665 3.42402 51.8185 3.61202 51.5225 3.61202H50.5265Z" fill="black"/>
<path d="M47.4491 7.79999C47.4491 8.11999 47.3931 8.40399 47.2811 8.65199C47.1691 8.89999 47.0091 9.09999 46.8011 9.25199H46.8131C46.6131 9.38799 46.4011 9.49999 46.1771 9.58799C45.9531 9.66799 45.7371 9.70799 45.5291 9.70799H43.5971C43.3971 9.70799 43.1811 9.66799 42.9491 9.58799C42.7251 9.49999 42.5131 9.38799 42.3131 9.25199H42.3251C42.1171 9.09999 41.9571 8.89999 41.8451 8.65199C41.7331 8.40399 41.6771 8.11999 41.6771 7.79999V2.98799C41.6771 2.60399 41.8971 2.41199 42.3371 2.41199C42.7771 2.41199 42.9971 2.60399 42.9971 2.98799V7.70399C42.9971 7.92799 43.0531 8.12399 43.1651 8.29199C43.2691 8.48399 43.4851 8.57999 43.8131 8.57999H45.3131C45.6331 8.57999 45.8451 8.48399 45.9491 8.29199L45.9371 8.30399C46.0651 8.11199 46.1291 7.91199 46.1291 7.70399V2.98799C46.1291 2.60399 46.3491 2.41199 46.7891 2.41199C47.2291 2.41199 47.4491 2.60399 47.4491 2.98799V7.79999Z" fill="black"/>
<path d="M40.0217 9.24002C40.0217 9.61602 39.8017 9.80402 39.3617 9.80402C38.9137 9.80402 38.6897 9.61602 38.6897 9.24002V0.636021C38.6897 0.260021 38.9137 0.0720215 39.3617 0.0720215C39.8017 0.0720215 40.0217 0.260021 40.0217 0.636021V9.24002Z" fill="black"/>
<path d="M35.2163 2.48401C35.4243 2.48401 35.6363 2.52801 35.8523 2.61601C36.0763 2.70401 36.2923 2.81601 36.5003 2.95201H36.4883C36.6963 3.10401 36.8563 3.30401 36.9683 3.55201C37.0803 3.79201 37.1363 4.07201 37.1363 4.39201V7.80001C37.1363 8.45601 36.9203 8.94001 36.4883 9.25201C36.0643 9.55601 35.6403 9.70801 35.2163 9.70801H33.2963C33.0883 9.70801 32.8763 9.67201 32.6603 9.60001C32.4443 9.52801 32.2323 9.41201 32.0243 9.25201C31.5923 8.94801 31.3763 8.46401 31.3763 7.80001V4.39201C31.3763 4.07201 31.4323 3.79201 31.5443 3.55201C31.6563 3.30401 31.8163 3.10401 32.0243 2.95201H32.0123C32.2123 2.81601 32.4243 2.70401 32.6483 2.61601C32.8723 2.52801 33.0883 2.48401 33.2963 2.48401H35.2163ZM35.0003 8.58001C35.2963 8.58001 35.5043 8.49601 35.6243 8.32801C35.7523 8.16001 35.8163 7.98001 35.8163 7.78801V4.40401C35.8163 4.20401 35.7523 4.02401 35.6243 3.86401C35.5043 3.69601 35.2963 3.61201 35.0003 3.61201H33.5123C33.2163 3.61201 33.0043 3.69601 32.8763 3.86401C32.7563 4.02401 32.6963 4.20401 32.6963 4.40401V7.78801C32.6963 7.98001 32.7563 8.16001 32.8763 8.32801C33.0043 8.49601 33.2163 8.58001 33.5123 8.58001H35.0003Z" fill="black"/>
<path d="M27.6652 4.22399C27.8732 4.22399 28.0892 4.26799 28.3132 4.35599C28.5372 4.44399 28.7532 4.55999 28.9612 4.70399H28.9492C29.1572 4.84799 29.3172 5.04399 29.4292 5.29199C29.5412 5.53999 29.5972 5.82399 29.5972 6.14399V7.78799C29.5972 8.43599 29.3812 8.91999 28.9492 9.23999C28.7412 9.39199 28.5252 9.51199 28.3012 9.59999C28.0852 9.67999 27.8732 9.71999 27.6652 9.71999H25.0492C24.8412 9.71999 24.6252 9.67999 24.4012 9.59999C24.1852 9.51199 23.9732 9.39199 23.7652 9.23999C23.3332 8.91999 23.1172 8.43599 23.1172 7.78799V6.99599C23.1172 6.61999 23.3532 6.43199 23.8252 6.43199C24.3052 6.43199 24.5452 6.61999 24.5452 6.99599V7.69199C24.5452 7.89999 24.6052 8.08799 24.7252 8.25599C24.8452 8.42399 25.0532 8.50799 25.3492 8.50799H27.3652C27.6612 8.50799 27.8692 8.42399 27.9892 8.25599C28.1092 8.08799 28.1692 7.89999 28.1692 7.69199V6.23999C28.1692 6.03999 28.1092 5.85599 27.9892 5.68799C27.8692 5.51199 27.6612 5.42399 27.3652 5.42399H25.0492C24.6332 5.42399 24.2052 5.27199 23.7652 4.96799C23.3332 4.63199 23.1172 4.14799 23.1172 3.51599V2.08799C23.1172 1.76799 23.1732 1.48799 23.2852 1.24799C23.3972 0.999992 23.5572 0.799992 23.7652 0.647992H23.7532C23.9612 0.511993 24.1772 0.399993 24.4012 0.311992C24.6252 0.223993 24.8412 0.179993 25.0492 0.179993H27.6652C27.8732 0.179993 28.0892 0.223993 28.3132 0.311992C28.5372 0.399993 28.7532 0.511993 28.9612 0.647992H28.9492C29.1572 0.799992 29.3172 0.999992 29.4292 1.24799C29.5412 1.48799 29.5972 1.76799 29.5972 2.08799V2.79599C29.5972 3.17199 29.3572 3.35999 28.8772 3.35999C28.4052 3.35999 28.1692 3.17199 28.1692 2.79599V2.19599C28.1692 1.99599 28.1092 1.81199 27.9892 1.64399C27.8692 1.47599 27.6612 1.39199 27.3652 1.39199H25.3492C25.0532 1.39199 24.8452 1.47599 24.7252 1.64399C24.6052 1.81199 24.5452 1.99599 24.5452 2.19599V3.41999C24.5452 3.62799 24.6052 3.81599 24.7252 3.98399C24.8452 4.14399 25.0532 4.22399 25.3492 4.22399H27.6652Z" fill="black"/>
<path d="M16.7791 0.324001C16.8991 0.180001 17.0351 0.108002 17.1871 0.108002C17.3551 0.108002 17.5271 0.184002 17.7031 0.336002C17.7911 0.424001 17.8631 0.512001 17.9191 0.600001C17.9831 0.688001 18.0151 0.776001 18.0151 0.864001C18.0151 1.008 17.9631 1.132 17.8591 1.236L16.2511 3.108L13.1191 6.792V9.204C13.1191 9.588 12.8791 9.78 12.3991 9.78C11.9271 9.78 11.6911 9.588 11.6911 9.204V0.696001C11.6911 0.312001 11.9271 0.120002 12.3991 0.120002C12.8791 0.120002 13.1191 0.312001 13.1191 0.696001V4.62L16.7791 0.324001ZM15.0751 6.024C14.9951 5.912 14.9551 5.776 14.9551 5.616C14.9551 5.376 15.0551 5.184 15.2551 5.04H15.2431C15.4031 4.928 15.5631 4.872 15.7231 4.872C15.8751 4.872 16.0031 4.96 16.1071 5.136L18.4231 8.52L18.4111 8.508C18.4831 8.62 18.5191 8.74 18.5191 8.868C18.5191 9.076 18.4151 9.26 18.2071 9.42H18.2191C18.1311 9.476 18.0471 9.52 17.9671 9.552C17.8871 9.584 17.8151 9.6 17.7511 9.6C17.6871 9.6 17.6191 9.576 17.5471 9.528C17.4831 9.48 17.4191 9.42 17.3551 9.348L15.0751 6.024Z" fill="black"/>
<path d="M9.21979 0.576024L9.20779 0.588023C9.25579 0.412023 9.34779 0.284023 9.48379 0.204023C9.62779 0.124023 9.81579 0.104023 10.0478 0.144023C10.2798 0.184023 10.4438 0.256023 10.5398 0.360023C10.6438 0.464024 10.6678 0.608024 10.6118 0.792024L8.45179 9.39602V9.38402C8.41179 9.52002 8.31979 9.62402 8.17579 9.69602C8.03979 9.76802 7.89579 9.80402 7.74379 9.80402C7.56779 9.80402 7.39979 9.77602 7.23979 9.72002C7.08779 9.67202 6.99179 9.56802 6.95179 9.40802L6.96379 9.42002L5.48779 3.56402H5.16379L3.69979 9.40802C3.65979 9.54402 3.55979 9.64402 3.39979 9.70802C3.23979 9.77202 3.07579 9.80402 2.90779 9.80402C2.69979 9.80402 2.53179 9.77202 2.40379 9.70802C2.28379 9.65202 2.20379 9.54802 2.16379 9.39602L2.17579 9.40802L0.0157895 0.792024C-0.0242105 0.632024 0.0117895 0.496024 0.123789 0.384024C0.235789 0.264024 0.395789 0.184023 0.603789 0.144023C1.05179 0.0720234 1.32379 0.220023 1.41979 0.588023L1.40779 0.576024L1.94779 2.74802C2.01979 3.03602 2.09179 3.33202 2.16379 3.63602C2.23579 3.93202 2.31579 4.25202 2.40379 4.59602C2.49179 4.93202 2.58779 5.30002 2.69179 5.70002C2.79579 6.10002 2.91179 6.54802 3.03979 7.04402L4.57579 0.564024C4.61579 0.388024 4.70779 0.272024 4.85179 0.216024C4.99579 0.160024 5.15579 0.132024 5.33179 0.132024C5.49179 0.132024 5.64779 0.164024 5.79979 0.228024C5.95179 0.284024 6.04779 0.404023 6.08779 0.588023L7.67179 7.00802L9.21979 0.576024Z" fill="black"/>
</svg>
