<svg width="300" height="300" viewBox="0 0 300 300" fill="none" xmlns="http://www.w3.org/2000/svg">
<rect width="300" height="300" fill="white"/>
<path d="M59.1125 112.789L72.4621 112.824C72.4621 112.824 73.4599 112.858 74.0104 112.977C74.5609 113.097 75.6275 113.371 76.0576 113.559C76.4877 113.747 77.0209 113.969 77.0209 113.969L78.38 114.722L79.1197 115.184L80.2379 116.176L81.0293 116.996L81.597 117.698L82.1819 118.621L82.6636 119.391L83.1624 120.451L87.7041 132.765L96.3744 156.229L106.184 180.452L105.72 181.364L104.976 182.446L104.348 183.177C104.348 183.177 103.853 183.827 103.234 184.34C102.615 184.853 101.948 185.319 101.948 185.319L101.079 185.824C101.079 185.824 100.077 186.329 99.6271 186.498C99.177 186.667 98.3377 186.994 97.5713 187.103C96.805 187.211 95.8318 187.236 95.698 187.236C95.5642 187.236 93.9341 187.199 93.9341 187.199C93.9341 187.199 92.5596 187.066 92.3163 186.994C92.073 186.921 90.3335 186.268 90.3335 186.268L89.4333 185.821L88.2169 185.035L87.4019 184.309L86.6031 183.541L85.5451 181.993L84.8741 180.745L84.3667 179.556L83.6785 177.606L59.1125 112.789Z" fill="url(#paint0_linear_30_11)" fill-opacity="0.99536"/>
<path d="M129.136 118.771C129.136 118.771 128.634 117.595 128.265 117.142C127.895 116.688 127.192 115.826 127.192 115.826L126.352 115.028L125.428 114.412L123.652 113.517L122.447 113.154L121.742 113.021L120.124 112.9L118.895 112.888L117.776 112.948L116.913 113.13C116.913 113.13 116.56 113.178 116.195 113.299C115.83 113.42 116.061 113.275 115.125 113.625C114.188 113.976 113.47 114.496 113.47 114.496L112.351 115.355L111.889 115.802L111.341 116.383L110.879 117.108L110.297 118.011L109.975 118.689L96.3018 156.08L106.167 180.46L129.136 118.771Z" fill="url(#paint1_linear_30_11)" fill-opacity="0.99536"/>
<path d="M129.126 118.765L119.534 144.529L132.24 178.65L132.812 180.077L133.396 181.213L133.87 181.987L134.198 182.471L134.612 182.991L135.269 183.717L135.841 184.261L136.619 184.865L137.252 185.301L138.067 185.797L139.125 186.292L140.293 186.728L141.667 186.982L143.285 187.139L144.331 187.151L145.779 187.09L147.202 186.812L148.2 186.498L149.672 185.784L151.338 184.684L152.627 183.547L152.907 183.172L129.126 118.765Z" fill="url(#paint2_linear_30_11)" fill-opacity="0.99536"/>
<path d="M152.901 183.166L142.969 156.477L156.585 119.203L156.988 118.457L157.639 117.586L158.615 116.518L159.452 115.754L160.656 114.859L161.593 114.303L163.174 113.601L164.232 113.239L164.926 113.057L165.875 112.936L166.957 112.864L180.107 112.779L155.329 178.53C154.147 181.109 153.812 181.681 152.901 183.166Z" fill="url(#paint3_linear_30_11)" fill-opacity="0.99536"/>
<path d="M186.086 112.543L186.299 147.728L215.153 115.488L215.987 114.901L216.779 114.431L218.258 113.713L219.626 113.285L220.933 112.969L221.561 112.892L222.361 112.849L239.28 112.772L186.261 172.04L186.248 187.098L167.225 187.127L167.177 161.357L186.086 112.543Z" fill="url(#paint4_linear_30_11)" fill-opacity="0.99536"/>
<path d="M195.472 161.738L214.869 185.969L215.153 186.232L215.505 186.504L215.913 186.788L216.26 186.976C216.26 186.976 216.405 187.03 216.564 187.036C216.722 187.042 239.401 187.115 239.401 187.115L207.988 147.695L195.472 161.738Z" fill="url(#paint5_linear_30_11)" fill-opacity="0.99536"/>
<defs>
<linearGradient id="paint0_linear_30_11" x1="69.0152" y1="113.619" x2="95.664" y2="182.134" gradientUnits="userSpaceOnUse">
<stop stop-color="#25A8B7" stop-opacity="0.99536"/>
<stop offset="0.31937" stop-color="#2588B7" stop-opacity="0.996078"/>
<stop offset="1" stop-color="#282DB7"/>
</linearGradient>
<linearGradient id="paint1_linear_30_11" x1="102.496" y1="160.736" x2="120.909" y2="113.051" gradientUnits="userSpaceOnUse">
<stop stop-color="#282DB7"/>
<stop offset="1" stop-color="#14AEFF" stop-opacity="0.99536"/>
</linearGradient>
<linearGradient id="paint2_linear_30_11" x1="123.363" y1="131.554" x2="146.292" y2="184.622" gradientUnits="userSpaceOnUse">
<stop stop-color="#0F2265" stop-opacity="0.996078"/>
<stop offset="0.167653" stop-color="#1C3589" stop-opacity="0.996078"/>
<stop offset="0.246548" stop-color="#2D4491" stop-opacity="0.996078"/>
<stop offset="0.402367" stop-color="#2A45A2" stop-opacity="0.996078"/>
<stop offset="0.617357" stop-color="#4E3E89" stop-opacity="0.996078"/>
<stop offset="1" stop-color="#9A28B7" stop-opacity="0.996078"/>
</linearGradient>
<linearGradient id="paint3_linear_30_11" x1="143.941" y1="165.682" x2="176.586" y2="113.637" gradientUnits="userSpaceOnUse">
<stop stop-color="#0E1363" stop-opacity="0.996078"/>
<stop offset="0.18146" stop-color="#292A70" stop-opacity="0.996078"/>
<stop offset="0.422091" stop-color="#2C2EA5" stop-opacity="0.99536"/>
<stop offset="0.524517" stop-color="#2C2EA5" stop-opacity="0.996078"/>
<stop offset="1" stop-color="#25A8B7" stop-opacity="0.996078"/>
</linearGradient>
<linearGradient id="paint4_linear_30_11" x1="195.408" y1="112.216" x2="196.225" y2="186.516" gradientUnits="userSpaceOnUse">
<stop stop-color="#2869B7"/>
<stop offset="0.126233" stop-color="#4D5BC1" stop-opacity="0.996078"/>
<stop offset="0.650888" stop-color="#7A32A6" stop-opacity="0.996078"/>
<stop offset="1" stop-color="#AD3CDB" stop-opacity="0.99536"/>
</linearGradient>
<linearGradient id="paint5_linear_30_11" x1="194.468" y1="147.072" x2="228.111" y2="187.126" gradientUnits="userSpaceOnUse">
<stop stop-color="#411E47" stop-opacity="0.99536"/>
<stop offset="0.0907298" stop-color="#511F57" stop-opacity="0.996078"/>
<stop offset="0.469428" stop-color="#9F26A5" stop-opacity="0.996078"/>
<stop offset="1" stop-color="#B128B7"/>
</linearGradient>
</defs>
</svg>
